<?xml version="1.0" encoding="utf-8"?>
<!-- Generator: Adobe Illustrator 16.0.0, SVG Export Plug-In . SVG Version: 6.00 Build 0)  -->
<!DOCTYPE svg PUBLIC "-//W3C//DTD SVG 1.1//EN" "http://www.w3.org/Graphics/SVG/1.1/DTD/svg11.dtd">
<svg version="1.1" id="Layer_1" xmlns="http://www.w3.org/2000/svg" xmlns:xlink="http://www.w3.org/1999/xlink" x="0px" y="0px"
	 width="300px" height="300px" viewBox="0 0 300 300" enable-background="new 0 0 300 300" xml:space="preserve">
<path fill="#939598" d="M257.499,65.487c-9.957-0.605-22.909-0.803-30.309-4.216c-26.958-12.378-53.885-39.44-65.71-42.666
	c-6.262-1.701-7.838-1.388-11.48-1.388s-5.219-0.313-11.48,1.388c-11.825,3.225-38.751,30.288-65.71,42.666
	c-7.399,3.403-20.352,3.611-30.308,4.216c-9.445,0.574-9.915,2.265-9.915,4.436c0,3.653,7.995,14.152,11.48,18.265
	c4.874,5.761,22.564,20.07,22.564,20.07S110.163,82.708,150,82.708c39.838,0,83.369,25.549,83.369,25.549
	s17.689-14.309,22.564-20.07c3.485-4.112,11.479-14.612,11.479-18.265C267.413,67.751,266.943,66.061,257.499,65.487z
	 M162.192,49.412c-0.602,5.067-2.657,9.007-5.369,12.494c-3.16,4.063-6.823,6.322-6.823,6.322s-3.663-2.258-6.823-6.322
	c-2.711-3.487-4.766-7.426-5.369-12.494c-0.269-2.268-0.251-9.031-0.251-9.031s6.522-3.813,12.443-3.813
	c5.92,0,12.443,3.813,12.443,3.813S162.461,47.145,162.192,49.412z"/>
<path fill="#939598" d="M150,132.883c34.624,0,66.379-14.984,73.081-18.354c-9.09-4.931-42.414-21.792-73.081-21.792
	c-30.678,0-64.014,16.873-73.089,21.797C83.512,117.899,114.891,132.883,150,132.883z"/>
<g>
	<path fill="#939598" d="M99.074,233.103c2.987,4.585,6.169,9.029,9.53,13.35C127.78,271.106,150,284.806,150,284.806
		s22.221-13.699,41.396-38.354c3.361-4.32,6.543-8.765,9.53-13.35H99.074z"/>
	<path fill="#939598" d="M225.114,149.262c0.321-12.246,0.37-25.366,0.375-30.801c-6.356,3.27-38.856,19.011-75.489,19.011
		c-37.081,0-69.146-15.696-75.489-19.003c0.005,5.44,0.052,18.554,0.374,30.793H225.114z"/>
</g>
<g>
	<path d="M91.211,160.618v27.26h-6.213l-3.688-12.392v12.392h-5.927v-27.26h5.927l3.973,12.275v-12.275H91.211z"/>
	<path d="M110.254,176.581c0,2.738-0.065,4.677-0.194,5.817c-0.129,1.139-0.533,2.181-1.212,3.124
		c-0.679,0.942-1.596,1.667-2.753,2.171c-1.156,0.506-2.503,0.758-4.041,0.758c-1.46,0-2.77-0.237-3.932-0.716
		c-1.162-0.477-2.096-1.192-2.804-2.146c-0.707-0.955-1.128-1.993-1.263-3.115c-0.134-1.123-0.202-3.088-0.202-5.894v-4.664
		c0-2.739,0.064-4.679,0.194-5.818c0.129-1.139,0.534-2.179,1.212-3.123c0.679-0.942,1.598-1.666,2.753-2.172
		c1.156-0.506,2.504-0.759,4.042-0.759c1.459,0,2.77,0.24,3.932,0.717c1.162,0.477,2.096,1.192,2.803,2.146
		c0.707,0.955,1.128,1.993,1.263,3.115c0.134,1.124,0.202,3.088,0.202,5.895V176.581z M103.166,167.623
		c0-1.269-0.07-2.08-0.21-2.433c-0.14-0.354-0.429-0.53-0.867-0.53c-0.371,0-0.654,0.142-0.851,0.429
		c-0.196,0.286-0.295,1.131-0.295,2.534v12.729c0,1.584,0.065,2.56,0.194,2.93c0.129,0.371,0.43,0.557,0.901,0.557
		c0.483,0,0.792-0.213,0.926-0.64s0.202-1.442,0.202-3.048V167.623z"/>
	<path d="M118.976,160.618h7.14c1.93,0,3.416,0.151,4.454,0.455c1.039,0.304,1.818,0.74,2.34,1.313s0.875,1.265,1.061,2.079
		s0.278,2.074,0.278,3.78v2.374c0,1.74-0.18,3.009-0.539,3.806c-0.359,0.797-1.019,1.408-1.979,1.834
		c-0.96,0.428-2.214,0.64-3.763,0.64h-1.903v10.979h-7.088V160.618z M126.064,165.282v6.937c0.203,0.013,0.376,0.018,0.522,0.018
		c0.651,0,1.104-0.16,1.355-0.479c0.253-0.319,0.379-0.985,0.379-1.995v-2.239c0-0.932-0.146-1.538-0.438-1.818
		C127.592,165.423,126.986,165.282,126.064,165.282z"/>
	<path d="M152.585,160.618v27.26h-7.089V176.43h-2.122v11.448h-7.089v-27.26h7.089v9.75h2.122v-9.75H152.585z"/>
	<path d="M171.628,176.581c0,2.738-0.063,4.677-0.192,5.817c-0.13,1.139-0.534,2.181-1.212,3.124
		c-0.68,0.942-1.598,1.667-2.753,2.171c-1.158,0.506-2.504,0.758-4.041,0.758c-1.46,0-2.772-0.237-3.933-0.716
		c-1.161-0.477-2.097-1.192-2.805-2.146c-0.707-0.955-1.126-1.993-1.261-3.115c-0.135-1.123-0.203-3.088-0.203-5.894v-4.664
		c0-2.739,0.064-4.679,0.193-5.818c0.129-1.139,0.533-2.179,1.214-3.123c0.678-0.942,1.595-1.666,2.752-2.172
		c1.155-0.506,2.502-0.759,4.042-0.759c1.459,0,2.769,0.24,3.931,0.717c1.161,0.477,2.095,1.192,2.803,2.146
		c0.707,0.955,1.13,1.993,1.264,3.115c0.135,1.124,0.201,3.088,0.201,5.895V176.581z M164.54,167.623c0-1.269-0.07-2.08-0.211-2.433
		c-0.14-0.354-0.429-0.53-0.867-0.53c-0.37,0-0.654,0.142-0.85,0.429c-0.196,0.286-0.296,1.131-0.296,2.534v12.729
		c0,1.584,0.065,2.56,0.194,2.93c0.129,0.371,0.431,0.557,0.9,0.557c0.482,0,0.792-0.213,0.926-0.64
		c0.135-0.427,0.203-1.442,0.203-3.048V167.623z"/>
	<path d="M188.55,160.618v5.456h-4.209v21.804h-7.088v-21.804h-4.194v-5.456H188.55z"/>
	<path d="M206.366,176.581c0,2.738-0.065,4.677-0.194,5.817c-0.131,1.139-0.534,2.181-1.213,3.124
		c-0.679,0.942-1.597,1.667-2.752,2.171c-1.156,0.506-2.505,0.758-4.042,0.758c-1.459,0-2.77-0.237-3.932-0.716
		c-1.162-0.477-2.098-1.192-2.803-2.146c-0.707-0.955-1.129-1.993-1.264-3.115c-0.134-1.123-0.202-3.088-0.202-5.894v-4.664
		c0-2.739,0.064-4.679,0.194-5.818c0.129-1.139,0.533-2.179,1.212-3.123c0.679-0.942,1.597-1.666,2.753-2.172
		s2.503-0.759,4.041-0.759c1.46,0,2.769,0.24,3.933,0.717c1.161,0.477,2.096,1.192,2.803,2.146c0.705,0.955,1.128,1.993,1.262,3.115
		c0.136,1.124,0.204,3.088,0.204,5.895V176.581z M199.276,167.623c0-1.269-0.071-2.08-0.209-2.433
		c-0.142-0.354-0.431-0.53-0.868-0.53c-0.371,0-0.654,0.142-0.852,0.429c-0.195,0.286-0.293,1.131-0.293,2.534v12.729
		c0,1.584,0.064,2.56,0.192,2.93c0.129,0.371,0.43,0.557,0.901,0.557c0.483,0,0.793-0.213,0.927-0.64
		c0.135-0.427,0.201-1.442,0.201-3.048V167.623z"/>
	<path d="M224.029,168.869h-6.585v-2.021c0-0.942-0.085-1.543-0.252-1.802c-0.169-0.258-0.45-0.387-0.841-0.387
		c-0.428,0-0.75,0.174-0.971,0.521c-0.217,0.35-0.326,0.877-0.326,1.585c0,0.91,0.122,1.594,0.368,2.054
		c0.233,0.461,0.901,1.016,2.003,1.668c3.155,1.873,5.144,3.409,5.962,4.611c0.819,1.201,1.23,3.137,1.23,5.808
		c0,1.943-0.229,3.375-0.684,4.295c-0.454,0.921-1.332,1.691-2.635,2.314c-1.301,0.623-2.816,0.935-4.545,0.935
		c-1.898,0-3.518-0.358-4.858-1.077c-1.342-0.719-2.22-1.634-2.635-2.745c-0.415-1.11-0.623-2.688-0.623-4.731v-1.784h6.582v3.316
		c0,1.022,0.094,1.679,0.278,1.971c0.187,0.292,0.515,0.438,0.986,0.438c0.471,0,0.821-0.186,1.051-0.557
		c0.23-0.37,0.346-0.92,0.346-1.648c0-1.605-0.219-2.655-0.657-3.148c-0.448-0.495-1.555-1.32-3.315-2.477
		c-1.763-1.167-2.932-2.015-3.502-2.541c-0.573-0.528-1.048-1.258-1.424-2.189c-0.376-0.933-0.564-2.121-0.564-3.57
		c0-2.088,0.268-3.614,0.801-4.581c0.533-0.964,1.395-1.719,2.583-2.265c1.19-0.544,2.627-0.816,4.312-0.816
		c1.84,0,3.408,0.298,4.705,0.894s2.155,1.344,2.578,2.247c0.419,0.904,0.631,2.439,0.631,4.604V168.869z"/>
</g>
<g>
	<path d="M90.844,193.325l4.225,28.406h-7.55l-0.396-5.104H84.48l-0.444,5.104h-7.638l3.769-28.406H90.844z M86.93,211.591
		c-0.374-3.218-0.75-7.193-1.126-11.933c-0.753,5.439-1.225,9.418-1.418,11.933H86.93z"/>
	<path d="M113.097,193.325l-3.76,28.406H98.116l-4.268-28.406h7.791c0.904,7.825,1.551,14.445,1.938,19.861
		c0.382-5.474,0.786-10.334,1.215-14.579l0.513-5.282H113.097z"/>
	<path d="M126.638,193.325l4.224,28.406h-7.549l-0.396-5.104h-2.642l-0.445,5.104h-7.637l3.769-28.406H126.638z M122.723,211.591
		c-0.373-3.218-0.749-7.193-1.125-11.933c-0.753,5.439-1.226,9.418-1.418,11.933H122.723z"/>
	<path d="M139.503,193.325v28.406h-7.386v-28.406H139.503z"/>
	<path d="M149.855,193.325v22.723h4.492v5.684h-11.879v-28.406H149.855z"/>
	<path d="M169.801,193.325l4.225,28.406h-7.549l-0.396-5.104h-2.642l-0.445,5.104h-7.636l3.766-28.406H169.801z M165.888,211.591
		c-0.375-3.218-0.751-7.193-1.128-11.933c-0.753,5.439-1.224,9.418-1.417,11.933H165.888z"/>
	<path d="M175.28,193.325h7.368c2.328,0,4.091,0.182,5.29,0.544c1.2,0.363,2.166,1.096,2.903,2.201
		c0.737,1.103,1.106,2.883,1.106,5.338c0,1.661-0.261,2.818-0.781,3.472c-0.52,0.654-1.547,1.156-3.08,1.508
		c1.709,0.386,2.868,1.027,3.475,1.924c0.608,0.894,0.913,2.267,0.913,4.115v2.632c0,1.922-0.22,3.343-0.658,4.27
		c-0.439,0.923-1.138,1.557-2.097,1.896s-2.925,0.508-5.896,0.508h-8.544V193.325z M182.666,198.186v6.315
		c0.315-0.012,0.562-0.018,0.738-0.018c0.723,0,1.187-0.178,1.386-0.534c0.198-0.357,0.298-1.377,0.298-3.062
		c0-0.89-0.082-1.513-0.246-1.869s-0.377-0.581-0.639-0.674C183.939,198.249,183.428,198.197,182.666,198.186z M182.666,208.924
		v7.947c1.041-0.034,1.706-0.197,1.991-0.49c0.286-0.293,0.431-1.013,0.431-2.158v-2.65c0-1.216-0.129-1.954-0.386-2.21
		C184.444,209.104,183.767,208.958,182.666,208.924z"/>
	<path d="M202.51,193.325v22.723h4.492v5.684h-11.877v-28.406H202.51z"/>
	<path d="M208.793,193.325h12.316v5.685h-4.93v5.388h4.612v5.403h-4.612v6.247h5.422v5.684h-12.809V193.325z"/>
</g>
</svg>
