<?xml version="1.0" standalone="no"?>
<!DOCTYPE svg PUBLIC "-//W3C//DTD SVG 20010904//EN"
 "http://www.w3.org/TR/2001/REC-SVG-20010904/DTD/svg10.dtd">
<svg version="1.0" xmlns="http://www.w3.org/2000/svg"
 width="700.000000pt" height="700.000000pt" viewBox="0 0 700.000000 700.000000"
 preserveAspectRatio="xMidYMid meet">
<metadata>
Created by potrace 1.11, written by Peter Selinger 2001-2013
</metadata>
<g transform="translate(0.000000,700.000000) scale(0.100000,-0.100000)"
fill="#000000" stroke="none">
<path d="M3360 6952 c-104 -13 -244 -59 -310 -103 -14 -9 -68 -45 -120 -79
-52 -35 -189 -133 -305 -219 -115 -87 -237 -177 -270 -201 -33 -24 -64 -48
-70 -53 -36 -30 -345 -239 -428 -289 -131 -79 -326 -181 -397 -207 -30 -11
-102 -29 -160 -40 -120 -23 -207 -31 -475 -46 -152 -8 -252 -21 -294 -36 -81
-31 -83 -87 -8 -217 108 -190 248 -360 426 -519 136 -122 143 -128 274 -236
130 -109 120 -107 215 -53 270 150 741 347 1042 436 41 12 86 25 100 30 21 8
115 33 170 45 54 13 262 55 293 59 20 3 52 8 70 11 111 17 240 25 392 25 138
0 235 -6 385 -25 45 -6 204 -35 275 -51 97 -21 95 -21 145 -34 25 -7 56 -14
69 -17 14 -2 28 -6 33 -9 4 -3 16 -7 25 -9 39 -8 215 -65 336 -109 240 -87
579 -239 797 -356 41 -22 78 -40 83 -40 18 0 340 276 485 415 130 124 294 341
366 482 55 110 23 173 -98 187 -74 9 -157 16 -241 21 -189 11 -338 24 -410 35
-105 17 -119 20 -184 41 -124 39 -409 197 -626 346 -200 138 -235 163 -513
371 -442 330 -528 383 -682 422 -65 17 -118 23 -225 24 -77 1 -151 0 -165 -2z
m283 -522 c38 -12 94 -32 124 -46 l56 -24 -6 -138 c-7 -177 -35 -268 -117
-387 -35 -50 -125 -143 -168 -173 l-33 -23 -37 27 c-150 112 -264 307 -276
477 -8 107 -9 204 -2 215 10 16 163 74 231 87 79 15 142 11 228 -15z"/>
<path d="M3377 5034 c-1 -1 -42 -4 -92 -8 -49 -4 -106 -9 -125 -12 -38 -5
-172 -27 -180 -29 -3 -1 -23 -5 -45 -9 -90 -17 -348 -87 -465 -127 -251 -83
-490 -183 -728 -302 l-143 -71 28 -15 c128 -67 695 -269 878 -314 11 -2 63
-16 115 -30 118 -32 317 -72 430 -87 47 -6 99 -13 115 -15 108 -15 343 -20
495 -10 117 7 214 15 240 20 14 2 48 7 75 10 339 40 791 163 1169 318 107 44
229 104 229 111 -2 20 -348 187 -573 276 -244 97 -584 203 -753 234 -15 3 -54
10 -87 16 -34 6 -77 13 -98 16 -20 2 -44 6 -52 9 -35 10 -422 28 -433 19z"/>
<path d="M1535 4441 c-3 -5 -1 -12 5 -16 5 -3 10 1 10 9 0 18 -6 21 -15 7z"/>
<path d="M1536 4183 c3 -267 15 -816 19 -893 10 -164 16 -247 20 -270 2 -14 9
-59 14 -100 6 -41 13 -86 16 -100 3 -14 8 -41 11 -60 49 -306 238 -819 404
-1100 18 -30 44 -75 58 -100 47 -83 170 -267 272 -405 241 -324 554 -644 871
-888 63 -49 121 -94 129 -100 8 -7 41 -30 73 -51 l57 -39 35 19 c50 27 242
172 380 288 137 115 404 378 519 511 128 147 446 583 446 610 0 3 16 32 36 63
50 78 176 320 214 412 17 41 35 84 40 95 68 159 165 464 184 580 2 17 10 55
16 85 6 30 13 66 16 80 2 14 6 36 9 50 3 14 7 48 11 75 3 28 7 61 9 74 4 23 9
94 20 261 12 185 24 1070 14 1070 -4 0 -38 -15 -75 -34 -75 -36 -259 -116
-269 -116 -4 0 -21 -7 -38 -14 -151 -69 -675 -213 -877 -241 -19 -3 -60 -10
-90 -15 -30 -5 -80 -12 -110 -15 -30 -3 -64 -8 -75 -10 -89 -18 -569 -27 -705
-13 -237 25 -550 89 -800 164 -109 33 -436 142 -475 159 -34 14 -349 143 -368
151 -10 4 -13 -35 -11 -183z"/>
</g>
</svg>
